<svg xmlns="http://www.w3.org/2000/svg" width="122" height="30" fill="none"><path fill="#0B0B0B" d="M22.543 22.754c.307 0 .579.115.816.345l2.219 2.334a12.127 12.127 0 0 1-4.542 3.39C19.249 29.608 17.1 30 14.589 30c-2.247 0-4.27-.372-6.07-1.116-1.786-.745-3.314-1.78-4.584-3.106-1.27-1.326-2.247-2.91-2.93-4.75C.335 19.188 0 17.178 0 15c0-2.206.363-4.222 1.088-6.049.726-1.84 1.745-3.423 3.056-4.75 1.326-1.325 2.903-2.354 4.73-3.085C10.704.372 12.727 0 14.945 0c2.205 0 4.159.352 5.861 1.055 1.717.704 3.175 1.624 4.375 2.761l-1.884 2.537a1.621 1.621 0 0 1-.44.426c-.167.122-.404.183-.711.183-.21 0-.426-.054-.649-.162a17.05 17.05 0 0 1-.732-.427 18.642 18.642 0 0 0-.921-.568 7.131 7.131 0 0 0-1.215-.548 8.842 8.842 0 0 0-1.611-.426c-.6-.122-1.298-.183-2.093-.183-1.354 0-2.596.237-3.726.71a7.926 7.926 0 0 0-2.888 2.03c-.81.88-1.438 1.962-1.884 3.248-.447 1.272-.67 2.727-.67 4.364 0 1.65.237 3.12.712 4.405.488 1.285 1.144 2.368 1.967 3.247a8.473 8.473 0 0 0 2.91 2.03c1.116.46 2.316.69 3.6.69.767 0 1.458-.04 2.072-.122.628-.08 1.2-.21 1.716-.385a7.72 7.72 0 0 0 1.486-.67c.475-.284.942-.63 1.403-1.035.14-.122.286-.217.44-.285.153-.08.313-.121.48-.121ZM50.575 4.81h-9.126v24.865h-5.63V4.811h-9.127V.325h23.883V4.81ZM63.682 14.29c1.06 0 1.981-.129 2.763-.386.795-.257 1.444-.609 1.946-1.056.517-.46.9-1 1.152-1.623a5.429 5.429 0 0 0 .376-2.05c0-1.489-.509-2.632-1.528-3.43-1.004-.8-2.546-1.198-4.625-1.198h-3.6v9.743h3.516Zm14.484 15.385H73.08c-.963 0-1.66-.365-2.093-1.096l-6.363-9.398c-.237-.352-.502-.602-.796-.75-.279-.15-.697-.224-1.255-.224h-2.407v11.468h-5.63V.325h9.23c2.05 0 3.81.21 5.274.629 1.48.406 2.686.981 3.621 1.725.95.745 1.647 1.638 2.093 2.68.447 1.028.67 2.165.67 3.41a8.44 8.44 0 0 1-.46 2.8 7.724 7.724 0 0 1-1.298 2.396 8.396 8.396 0 0 1-2.093 1.887c-.823.542-1.765.968-2.826 1.28.363.202.698.446 1.005.73.307.27.586.595.837.974l7.577 10.84ZM99.163 25.17v4.505H81.435V.325h5.63v24.844h12.098ZM122 17.415h-8.54v8.728h-3.035v-8.728h-8.498v-2.74h8.498V6.008h3.035v8.667H122v2.74Z"/></svg>